<?xml version="1.0" standalone="no"?>
<!DOCTYPE svg PUBLIC "-//W3C//DTD SVG 20010904//EN"
 "http://www.w3.org/TR/2001/REC-SVG-20010904/DTD/svg10.dtd">
<svg version="1.0" xmlns="http://www.w3.org/2000/svg"
 width="260.000000pt" height="260.000000pt" viewBox="0 0 260.000000 260.000000"
 preserveAspectRatio="xMidYMid meet">
<metadata>
Created by potrace 1.14, written by Peter Selinger 2001-2017
</metadata>
<g transform="translate(0.000000,260.000000) scale(0.100000,-0.100000)"
fill="#000000" stroke="none">
<path d="M930 1475 l0 -765 144 0 144 0 1 765 0 765 -144 0 -145 0 0 -765z"/>
<path d="M1449 2133 c0 -119 0 -1391 1 -1410 0 -10 35 -13 143 -13 l142 0 0
383 -1 382 42 41 c44 44 74 54 158 54 58 0 105 -23 133 -67 16 -25 18 -61 21
-410 l3 -383 145 0 146 0 -4 407 c-5 447 -6 459 -68 556 -32 51 -101 101 -165
119 -22 6 -78 11 -125 11 -97 -1 -157 -22 -227 -79 -23 -19 -46 -35 -50 -34
-4 0 -8 123 -8 273 l0 272 -142 3 -143 3 -1 -108z"/>
<path d="M278 1918 l-3 -133 -75 1 -76 1 1 -106 0 -105 72 -1 c39 0 74 -3 78
-6 3 -4 7 -154 9 -335 2 -233 6 -339 15 -364 24 -67 64 -113 126 -145 51 -26
70 -30 150 -32 50 -1 114 3 141 10 l49 12 0 105 0 105 -45 1 c-25 1 -58 2 -73
3 -15 0 -39 12 -52 26 l-25 24 0 298 0 298 90 0 c74 -1 90 2 91 15 1 27 2 134
0 167 l-1 32 -90 -2 -90 -2 0 132 0 133 -145 0 -144 0 -3 -132z"/>
</g>
</svg>
